<svg width="201" height="38" viewBox="0 0 201 38" fill="none" xmlns="http://www.w3.org/2000/svg">
<path d="M6.75 16H8.325C8.95833 16 9.48333 15.9167 9.9 15.75C10.3167 15.5667 10.675 15.2833 10.975 14.9L20.95 2.275C21.3667 1.74166 21.8 1.375 22.25 1.175C22.7167 0.958331 23.3 0.849998 24 0.849998H29.8L17.625 15.875C16.9083 16.7917 16.1667 17.4417 15.4 17.825C15.95 18.025 16.4417 18.3083 16.875 18.675C17.325 19.025 17.75 19.4917 18.15 20.075L30.7 37H24.775C23.975 37 23.375 36.8917 22.975 36.675C22.5917 36.4417 22.2667 36.1083 22 35.675L11.775 22.325C11.4583 21.875 11.0917 21.5583 10.675 21.375C10.2583 21.1917 9.65833 21.1 8.875 21.1H6.75V37H0.0250003V0.849998H6.75V16ZM41.0273 16H42.6023C43.2357 16 43.7607 15.9167 44.1773 15.75C44.594 15.5667 44.9523 15.2833 45.2523 14.9L55.2273 2.275C55.644 1.74166 56.0773 1.375 56.5273 1.175C56.994 0.958331 57.5773 0.849998 58.2773 0.849998H64.0773L51.9023 15.875C51.1857 16.7917 50.444 17.4417 49.6773 17.825C50.2273 18.025 50.719 18.3083 51.1523 18.675C51.6023 19.025 52.0273 19.4917 52.4273 20.075L64.9773 37H59.0523C58.2523 37 57.6523 36.8917 57.2523 36.675C56.869 36.4417 56.544 36.1083 56.2773 35.675L46.0523 22.325C45.7357 21.875 45.369 21.5583 44.9523 21.375C44.5357 21.1917 43.9357 21.1 43.1523 21.1H41.0273V37H34.3023V0.849998H41.0273V16Z" fill="#F5F5F5"/>
<path d="M91.5492 28.475C91.9159 28.475 92.2409 28.6167 92.5242 28.9L95.1742 31.775C93.7076 33.5917 91.8992 34.9833 89.7492 35.95C87.6159 36.9167 85.0492 37.4 82.0492 37.4C79.3659 37.4 76.9492 36.9417 74.7992 36.025C72.6659 35.1083 70.8409 33.8333 69.3242 32.2C67.8076 30.5667 66.6409 28.6167 65.8242 26.35C65.0242 24.0833 64.6242 21.6083 64.6242 18.925C64.6242 16.2083 65.0576 13.725 65.9242 11.475C66.7909 9.20833 68.0076 7.25833 69.5742 5.625C71.1576 3.99166 73.0409 2.725 75.2242 1.825C77.4076 0.908333 79.8242 0.45 82.4742 0.45C85.1076 0.45 87.4409 0.883332 89.4742 1.75C91.5242 2.61667 93.2659 3.75 94.6992 5.15L92.4492 8.275C92.3159 8.475 92.1409 8.65 91.9242 8.8C91.7242 8.95 91.4409 9.025 91.0742 9.025C90.8242 9.025 90.5659 8.95833 90.2992 8.825C90.0326 8.675 89.7409 8.5 89.4242 8.3C89.1076 8.08333 88.7409 7.85 88.3242 7.6C87.9076 7.35 87.4242 7.125 86.8742 6.925C86.3242 6.70833 85.6826 6.53333 84.9492 6.4C84.2326 6.25 83.3992 6.175 82.4492 6.175C80.8326 6.175 79.3492 6.46667 77.9992 7.05C76.6659 7.61667 75.5159 8.45 74.5492 9.55C73.5826 10.6333 72.8326 11.9667 72.2992 13.55C71.7659 15.1167 71.4992 16.9083 71.4992 18.925C71.4992 20.9583 71.7826 22.7667 72.3492 24.35C72.9326 25.9333 73.7159 27.2667 74.6992 28.35C75.6826 29.4333 76.8409 30.2667 78.1742 30.85C79.5076 31.4167 80.9409 31.7 82.4742 31.7C83.3909 31.7 84.2159 31.65 84.9492 31.55C85.6992 31.45 86.3826 31.2917 86.9992 31.075C87.6326 30.8583 88.2242 30.5833 88.7742 30.25C89.3409 29.9 89.8992 29.475 90.4492 28.975C90.6159 28.825 90.7909 28.7083 90.9742 28.625C91.1576 28.525 91.3492 28.475 91.5492 28.475ZM133.475 18.925C133.475 21.575 133.033 24.0333 132.15 26.3C131.283 28.55 130.05 30.5 128.45 32.15C126.85 33.8 124.925 35.0917 122.675 36.025C120.425 36.9417 117.925 37.4 115.175 37.4C112.441 37.4 109.95 36.9417 107.7 36.025C105.45 35.0917 103.516 33.8 101.9 32.15C100.3 30.5 99.0579 28.55 98.1746 26.3C97.2913 24.0333 96.8496 21.575 96.8496 18.925C96.8496 16.275 97.2913 13.825 98.1746 11.575C99.0579 9.30833 100.3 7.35 101.9 5.7C103.516 4.05 105.45 2.76667 107.7 1.85C109.95 0.916666 112.441 0.45 115.175 0.45C117.008 0.45 118.733 0.666666 120.35 1.1C121.966 1.51667 123.45 2.11667 124.8 2.9C126.15 3.66666 127.358 4.60833 128.425 5.725C129.508 6.825 130.425 8.05833 131.175 9.425C131.925 10.7917 132.491 12.275 132.875 13.875C133.275 15.475 133.475 17.1583 133.475 18.925ZM126.6 18.925C126.6 16.9417 126.333 15.1667 125.8 13.6C125.266 12.0167 124.508 10.675 123.525 9.575C122.541 8.475 121.341 7.63333 119.925 7.05C118.525 6.46667 116.941 6.175 115.175 6.175C113.408 6.175 111.816 6.46667 110.4 7.05C109 7.63333 107.8 8.475 106.8 9.575C105.816 10.675 105.058 12.0167 104.525 13.6C103.991 15.1667 103.725 16.9417 103.725 18.925C103.725 20.9083 103.991 22.6917 104.525 24.275C105.058 25.8417 105.816 27.175 106.8 28.275C107.8 29.3583 109 30.1917 110.4 30.775C111.816 31.3583 113.408 31.65 115.175 31.65C116.941 31.65 118.525 31.3583 119.925 30.775C121.341 30.1917 122.541 29.3583 123.525 28.275C124.508 27.175 125.266 25.8417 125.8 24.275C126.333 22.6917 126.6 20.9083 126.6 18.925ZM171.48 18.925C171.48 21.575 171.039 24.0083 170.155 26.225C169.272 28.4417 168.03 30.35 166.43 31.95C164.83 33.55 162.905 34.7917 160.655 35.675C158.405 36.5583 155.905 37 153.155 37H139.38V0.849998H153.155C155.905 0.849998 158.405 1.3 160.655 2.2C162.905 3.08333 164.83 4.325 166.43 5.925C168.03 7.50833 169.272 9.40833 170.155 11.625C171.039 13.8417 171.48 16.275 171.48 18.925ZM164.58 18.925C164.58 16.9417 164.314 15.1667 163.78 13.6C163.264 12.0167 162.505 10.6833 161.505 9.6C160.522 8.5 159.322 7.65833 157.905 7.075C156.505 6.49166 154.922 6.2 153.155 6.2H146.13V31.65H153.155C154.922 31.65 156.505 31.3583 157.905 30.775C159.322 30.1917 160.522 29.3583 161.505 28.275C162.505 27.175 163.264 25.8417 163.78 24.275C164.314 22.6917 164.58 20.9083 164.58 18.925ZM184.168 6.2V16.225H196.818V21.4H184.168V31.625H200.218V37H177.418V0.849998H200.218V6.2H184.168Z" fill="#5CFF6F"/>
</svg>
