<svg width="29" height="30" viewBox="0 0 29 30" fill="none" xmlns="http://www.w3.org/2000/svg">
<path d="M14.5 15C12.5062 15 10.7995 14.2656 9.37969 12.7969C7.9599 11.3281 7.25 9.5625 7.25 7.5C7.25 5.4375 7.9599 3.67188 9.37969 2.20313C10.7995 0.734375 12.5062 0 14.5 0C16.4937 0 18.2005 0.734375 19.6203 2.20313C21.0401 3.67188 21.75 5.4375 21.75 7.5C21.75 9.5625 21.0401 11.3281 19.6203 12.7969C18.2005 14.2656 16.4937 15 14.5 15ZM0 30V24.75C0 23.6875 0.264625 22.7112 0.793875 21.8212C1.32313 20.9312 2.02517 20.2513 2.9 19.7812C4.77292 18.8125 6.67604 18.0862 8.60937 17.6025C10.5427 17.1187 12.5062 16.8762 14.5 16.875C16.4937 16.8738 18.4573 17.1162 20.3906 17.6025C22.324 18.0887 24.2271 18.815 26.1 19.7812C26.976 20.25 27.6787 20.93 28.2079 21.8212C28.7372 22.7125 29.0012 23.6888 29 24.75V30H0Z" fill="#D7D7D7"/>
</svg>
