<svg width="55" height="74" viewBox="0 0 55 74" fill="none" xmlns="http://www.w3.org/2000/svg">
<path d="M0.838379 9.62371C0.838379 4.6069 5.21108 0.528076 10.5894 0.528076H44.7178C50.096 0.528076 54.4687 4.6069 54.4687 9.62371V64.1975C54.4687 69.2143 50.096 73.2932 44.7178 73.2932H10.5894C5.21108 73.2932 0.838379 69.2143 0.838379 64.1975V9.62371ZM20.3403 64.1975C20.3403 65.4482 21.4373 66.4714 22.7781 66.4714H32.529C33.8698 66.4714 34.9668 65.4482 34.9668 64.1975C34.9668 62.9469 33.8698 61.9236 32.529 61.9236H22.7781C21.4373 61.9236 20.3403 62.9469 20.3403 64.1975ZM44.7178 9.62371H10.5894V55.1019H44.7178V9.62371Z" fill="#D7D7D7"/>
</svg>
