<svg width="20" height="16" viewBox="0 0 20 16" fill="none" xmlns="http://www.w3.org/2000/svg">
<path d="M11.133 1.10137C11.4009 0.845435 11.7642 0.70166 12.143 0.70166C12.5219 0.70166 12.8852 0.845435 13.1531 1.10137L19.5817 7.24471C19.8495 7.50072 20 7.8479 20 8.2099C20 8.5719 19.8495 8.91908 19.5817 9.17509L13.1531 15.3184C12.8836 15.5671 12.5228 15.7047 12.1482 15.7016C11.7736 15.6985 11.4153 15.5549 11.1504 15.3018C10.8856 15.0487 10.7353 14.7063 10.7321 14.3483C10.7288 13.9904 10.8728 13.6455 11.133 13.3881L15.0002 9.57509H1.42859C1.04971 9.57509 0.686338 9.43126 0.418425 9.17523C0.150512 8.91921 0 8.57197 0 8.2099C0 7.84783 0.150512 7.50059 0.418425 7.24457C0.686338 6.98855 1.04971 6.84471 1.42859 6.84471H15.0002L11.133 3.03174C10.8652 2.77573 10.7148 2.42856 10.7148 2.06656C10.7148 1.70456 10.8652 1.35738 11.133 1.10137Z" fill="#D7D7D7"/>
</svg>
