<svg width="51" height="32" viewBox="0 0 51 32" fill="none" xmlns="http://www.w3.org/2000/svg">
<path d="M14.5075 0.327637C15.98 0.327637 17.305 0.455137 18.52 0.715137C19.7275 0.972637 20.7575 1.39764 21.6275 1.98514C22.485 2.57264 23.155 3.35264 23.6375 4.33264C24.105 5.30014 24.3375 6.51014 24.3375 7.94014C24.3375 9.49014 23.9875 10.7851 23.285 11.8176C22.5775 12.8526 21.535 13.7001 20.145 14.3551C22.0375 14.9026 23.44 15.8601 24.37 17.2201C25.305 18.5926 25.7625 20.2351 25.7625 22.1601C25.7625 23.7226 25.465 25.0651 24.8675 26.1926C24.2917 27.3034 23.4564 28.2587 22.4325 28.9776C21.3719 29.7162 20.1873 30.2581 18.935 30.5776C17.622 30.9223 16.2699 31.0954 14.9125 31.0926H0V0.327637H14.5075ZM13.63 12.7576C14.83 12.7576 15.825 12.4726 16.61 11.8951C17.39 11.3251 17.7675 10.3851 17.7675 9.09764C17.7675 8.38264 17.64 7.79264 17.39 7.33014C17.1464 6.88519 16.786 6.51521 16.3475 6.26014C15.8886 5.98796 15.3821 5.80555 14.855 5.72264C14.2805 5.61549 13.6969 5.56442 13.1125 5.57014H6.775V12.7576H13.63ZM14.0075 25.8551C14.675 25.8551 15.31 25.7976 15.9075 25.6626C16.51 25.5326 17.045 25.3226 17.5 25.0101C17.955 24.7101 18.33 24.3026 18.6 23.7826C18.8725 23.2676 19.005 22.5951 19.005 21.7876C19.005 20.2026 18.5575 19.0751 17.6725 18.3926C16.785 17.7176 15.595 17.3826 14.1375 17.3826H6.775V25.8576L14.0075 25.8551ZM35.42 25.7526C36.3375 26.6476 37.66 27.0976 39.38 27.0976C40.6125 27.0976 41.6775 26.7851 42.575 26.1651C43.46 25.5426 44 24.8776 44.2075 24.1901H49.595C48.73 26.8701 47.4175 28.7851 45.6225 29.9376C43.85 31.0951 41.6925 31.6701 39.1725 31.6701C37.4175 31.6701 35.8375 31.3876 34.4225 30.8276C33.0643 30.2987 31.837 29.4816 30.825 28.4326C29.8297 27.3592 29.0603 26.0967 28.5625 24.7201C28.0153 23.1979 27.7443 21.5901 27.7625 19.9726C27.7625 18.3076 28.04 16.7501 28.585 15.3126C29.1024 13.9231 29.8968 12.6532 30.92 11.5801C31.9325 10.5301 33.1325 9.70264 34.53 9.09514C35.9996 8.47708 37.5809 8.16898 39.175 8.19014C41.06 8.19014 42.7075 8.55514 44.1225 9.29014C45.4947 9.99175 46.6845 11.0035 47.5975 12.2451C48.505 13.4776 49.1525 14.8901 49.555 16.4726C49.9575 18.0526 50.0975 19.7026 49.9825 21.4301H33.905C33.9075 23.1901 34.5 24.8576 35.42 25.7526ZM42.45 14.0501C41.7225 13.2451 40.4925 12.8101 38.9875 12.8101C38.01 12.8101 37.2025 12.9726 36.5525 13.3076C35.9582 13.6078 35.4309 14.0254 35.0025 14.5351C34.6263 14.9979 34.3474 15.5319 34.1825 16.1051C34.0383 16.5831 33.9453 17.075 33.905 17.5726H43.86C43.715 16.0126 43.18 14.8601 42.45 14.0501ZM32.655 2.39264H45.1275V5.43014H32.655V2.39264Z" fill="white"/>
</svg>
