<svg width="29" height="34" viewBox="0 0 29 34" fill="none" xmlns="http://www.w3.org/2000/svg">
<path d="M10.6842 6.98687e-08C10.9579 -8.9572e-05 11.2265 0.0860807 11.462 0.249489C11.6975 0.412898 11.8912 0.647535 12.0228 0.928835L12.1006 1.1257L15.1533 10.074C15.2762 10.434 15.2961 10.8311 15.2099 11.2055C15.1238 11.5799 14.9362 11.9114 14.6755 12.15L14.5229 12.2717L11.9678 14.0685L12.064 14.2529C13.2801 16.5168 14.9136 18.4322 16.8444 19.8581L17.0001 19.969L18.5341 16.9767C18.704 16.644 18.9616 16.385 19.268 16.2388C19.5744 16.0926 19.913 16.0671 20.2328 16.166L20.4084 16.2358L28.0399 19.8151C28.2941 19.934 28.5163 20.1308 28.6833 20.3849C28.8503 20.6389 28.956 20.941 28.9893 21.2594L29 21.4759V28.6346C29 31.6001 26.9502 34.0036 24.3295 34C11.2352 33.0676 0.796737 20.8281 7.11331e-09 5.36899C-6.50542e-05 3.99952 0.44618 2.68178 1.24743 1.68539C2.04869 0.689008 3.14437 0.0892907 4.31032 0.00894859L4.57895 6.98687e-08H10.6842Z" fill="#D7D7D7"/>
</svg>
