<svg width="50" height="50" viewBox="0 0 50 50" fill="none" xmlns="http://www.w3.org/2000/svg">
<path d="M46.65 12.45C44.4684 8.66932 41.3288 5.53052 37.5475 3.35C33.715 1.1175 29.5325 0 25 0C20.4675 0 16.285 1.1175 12.45 3.35C8.6175 5.5825 5.5825 8.6175 3.35 12.45C1.1175 16.2825 0 20.4675 0 25C0 29.5325 1.115 33.7175 3.35 37.55C5.53081 41.3313 8.67064 44.4702 12.4525 46.65C16.285 48.8825 20.4675 50 25 50C29.5325 50 33.715 48.8825 37.55 46.65C41.3313 44.4695 44.4709 41.3307 46.6525 37.55C48.885 33.7175 50 29.5325 50 25C50 20.4675 48.885 16.2825 46.65 12.45ZM25 4.15C30 4.15 34.43 5.75 38.3 8.9475C36 11.8825 32.585 14.2975 28.05 16.1975C25.545 11.665 22.83 7.88 19.8975 4.8475C21.5595 4.38795 23.2756 4.15336 25 4.15ZM8.775 12C10.6031 9.67857 12.9162 7.78443 15.5525 6.45C18.5825 9.4525 21.365 13.2 23.9025 17.7C18.9025 19.2 13.6175 19.95 8.05 19.95C6.6175 19.95 5.535 19.9175 4.8 19.85C5.56619 16.986 6.91987 14.3126 8.775 12ZM4.15 25C4.15 24.865 4.1575 24.7 4.175 24.5C4.1925 24.3 4.2 24.135 4.2 24C4.835 24.035 5.8025 24.05 7.1025 24.05C13.7675 24.05 19.9675 23.1325 25.7 21.3C26.1675 22.2325 26.6525 23.2825 27.15 24.45C23.85 25.1825 20.465 26.965 16.9975 29.8C13.53 32.635 11 35.6175 9.4 38.75C5.9 34.7825 4.15 30.2 4.15 25ZM25 45.85C20.265 45.85 16.015 44.3825 12.2475 41.4525C13.75 38.485 16.0575 35.6475 19.175 32.95C22.29 30.25 25.3825 28.5675 28.45 27.9C30.385 33.2475 31.6937 38.8012 32.35 44.45C30.0072 45.3655 27.5153 45.8401 25 45.85ZM42.7 35.95C41.0636 38.5863 38.8602 40.8248 36.25 42.5025C35.65 37.3025 34.5 32.235 32.8025 27.3C35.1325 27.135 37.215 27.05 39.0525 27.05C41.05 27.05 43.2675 27.135 45.7 27.3C45.3736 30.3746 44.3474 33.3336 42.7 35.95ZM39.6 23.45C36.7 23.45 34.0175 23.5675 31.55 23.8C31.0273 22.432 30.4604 21.0812 29.85 19.75C35.015 17.485 38.68 14.735 40.8475 11.5C43.8475 15.035 45.4825 19.0675 45.7475 23.6C43.7175 23.5 41.6675 23.45 39.6 23.45Z" fill="white"/>
</svg>
