<svg width="50" height="49" viewBox="0 0 50 49" fill="none" xmlns="http://www.w3.org/2000/svg">
<path fill-rule="evenodd" clip-rule="evenodd" d="M25.0649 0C11.2924 0 0.129883 11.1625 0.129883 24.935C0.129883 35.95 7.27238 45.2975 17.1824 48.5975C18.4299 48.8225 18.8799 48.055 18.8799 47.395C18.8799 46.8025 18.8599 45.2325 18.8524 43.155C11.9149 44.66 10.4499 39.81 10.4499 39.81C9.31988 36.93 7.68238 36.1625 7.68238 36.1625C5.41988 34.615 7.85488 34.65 7.85488 34.65C10.3599 34.825 11.6724 37.22 11.6724 37.22C13.8974 41.03 17.5124 39.93 18.9274 39.2925C19.1549 37.68 19.8049 36.58 20.5149 35.9575C14.9799 35.33 9.15988 33.19 9.15988 23.6325C9.15988 20.915 10.1324 18.685 11.7199 16.945C11.4674 16.3125 10.6049 13.775 11.9674 10.345C11.9674 10.345 14.0599 9.6725 18.8224 12.8975C20.8564 12.3442 22.9545 12.0617 25.0624 12.0575C27.1703 12.0609 29.2686 12.3434 31.3024 12.8975C36.0674 9.67 38.1574 10.345 38.1574 10.345C39.5199 13.775 38.6649 16.3125 38.4049 16.945C40.0049 18.685 40.9649 20.9125 40.9649 23.6325C40.9649 33.215 35.1399 35.32 29.5849 35.9375C30.4724 36.7075 31.2724 38.2275 31.2724 40.5525C31.2724 43.8875 31.2424 46.5775 31.2424 47.395C31.2424 48.0625 31.6874 48.8375 32.9599 48.5925C42.8649 45.2875 49.9999 35.9475 49.9999 24.935C49.9999 11.1625 38.8374 0 25.0649 0Z" fill="white"/>
</svg>
