<svg width="51" height="38" viewBox="0 0 51 38" fill="none" xmlns="http://www.w3.org/2000/svg">
<path d="M42.8249 1.52524L39.6249 4.02524L25.9999 14.1502L12.3749 3.92524L9.17488 1.42524C8.42102 0.801602 7.50075 0.412839 6.5281 0.307114C5.55545 0.201389 4.57315 0.383349 3.7029 0.830449C2.83265 1.27755 2.1127 1.97014 1.63223 2.82242C1.15176 3.67471 0.9319 4.64922 0.999879 5.62524V34.6002C0.999879 35.502 1.35809 36.3668 1.99572 37.0044C2.63334 37.642 3.49814 38.0002 4.39988 38.0002H12.3749V18.7002L25.9999 28.9252L39.6249 18.7002V38.0002H47.5999C48.5016 38.0002 49.3664 37.642 50.004 37.0044C50.6417 36.3668 50.9999 35.502 50.9999 34.6002V5.62524C51.0468 4.65764 50.8117 3.69725 50.323 2.86079C49.8343 2.02434 49.1132 1.34785 48.2473 0.913565C47.3814 0.479276 46.4079 0.305887 45.4453 0.414476C44.4827 0.523065 43.5723 0.908955 42.8249 1.52524Z" fill="white"/>
</svg>
