<svg width="29" height="34" viewBox="0 0 29 34" fill="none" xmlns="http://www.w3.org/2000/svg">
<path d="M2.20028 25.4119V31.4204H7.32516L22.4401 13.6833L17.3153 7.67483L2.20028 25.4119ZM29 27.1904L23.1918 34L16.0853 25.6682L18.5042 22.8322L19.8709 24.4345L23.2465 20.4609L25.1871 22.7361L23.1918 25.0113L24.6404 26.6136L26.5811 24.3704L29 27.1904ZM7.13384 15.1254L0 6.80961L5.8082 0L8.21348 2.836L4.83789 6.80961L6.30019 8.50801L9.66211 4.5344L11.6027 6.80961L9.66211 9.0688L11.0287 10.6711L7.13384 15.1254ZM26.4034 8.98869C26.9364 8.36381 26.9364 7.38643 26.4034 6.7295L23.2055 3.0443C22.6998 2.41942 21.8115 2.41942 21.2785 3.0443L18.7639 5.97644L23.8888 11.9849L26.4034 8.98869Z" fill="#D7D7D7"/>
</svg>
