<svg width="29" height="30" viewBox="0 0 29 30" fill="none" xmlns="http://www.w3.org/2000/svg">
<path d="M23.7273 10.9091C22.475 10.9091 21.3875 10.5227 20.4648 9.75C19.542 8.97727 18.9269 8 18.6193 6.81818H10.3477C10.1061 7.77273 9.65041 8.59682 8.98077 9.29045C8.31114 9.98409 7.51452 10.4555 6.59091 10.7045V19.2614C7.73333 19.5795 8.67803 20.2159 9.425 21.1705C10.172 22.125 10.5455 23.25 10.5455 24.5455C10.5455 26.0455 10.0292 27.3295 8.99659 28.3977C7.96402 29.4659 6.72273 30 5.27273 30C3.82273 30 2.58144 29.4659 1.54886 28.3977C0.516288 27.3295 0 26.0455 0 24.5455C0 23.25 0.373485 22.125 1.12045 21.1705C1.86742 20.2159 2.81212 19.5795 3.95455 19.2614V10.7045C2.81212 10.3864 1.86742 9.75 1.12045 8.79545C0.373485 7.84091 0 6.72727 0 5.45455C0 3.95455 0.516288 2.67045 1.54886 1.60227C2.58144 0.534091 3.82273 0 5.27273 0C6.50303 0 7.57955 0.386364 8.50227 1.15909C9.425 1.93182 10.0402 2.90909 10.3477 4.09091H18.6193C18.9269 2.90909 19.542 1.93182 20.4648 1.15909C21.3875 0.386364 22.475 0 23.7273 0C25.1773 0 26.4186 0.534091 27.4511 1.60227C28.4837 2.67045 29 3.95455 29 5.45455C29 6.95455 28.4837 8.23864 27.4511 9.30682C26.4186 10.375 25.1773 10.9091 23.7273 10.9091ZM23.7273 30C22.2773 30 21.036 29.4659 20.0034 28.3977C18.9708 27.3295 18.4545 26.0455 18.4545 24.5455C18.4545 23.0455 18.9708 21.7614 20.0034 20.6932C21.036 19.625 22.2773 19.0909 23.7273 19.0909C25.1773 19.0909 26.4186 19.625 27.4511 20.6932C28.4837 21.7614 29 23.0455 29 24.5455C29 26.0455 28.4837 27.3295 27.4511 28.3977C26.4186 29.4659 25.1773 30 23.7273 30Z" fill="#D7D7D7"/>
</svg>
