<svg width="32" height="34" viewBox="0 0 32 34" fill="none" xmlns="http://www.w3.org/2000/svg">
<path d="M6.9035 0V0.00721718C5.12057 0.238166 3.54446 2.31671 3.54446 4.97262C3.54446 6.44492 4.05081 7.744 4.79251 8.64615L5.51995 9.52664L4.40027 9.73594C3.42322 9.92358 2.70292 10.4504 2.10386 11.2876C1.49766 12.1176 1.04123 13.2723 0.720303 14.5931C0.135503 17.018 0.0142634 19.9843 0 22.568H3.13795L3.98663 34H10.8545L11.6033 22.568H14.5915C14.5915 19.9554 14.5701 16.9531 14.0352 14.5065C13.7499 13.1713 13.3078 12.0238 12.7016 11.1938C12.0883 10.371 11.3323 9.84419 10.2411 9.6782L9.10007 9.49777L9.82037 8.58841C10.5335 7.68627 11.0114 6.40883 11.0114 4.97262C11.0114 2.14349 9.2427 0.00721718 7.27435 0.00721718C7.06753 0.00721718 6.93916 0 6.9035 0ZM29.7892 0.577372C28.5625 0.577372 27.5783 1.57117 27.5783 2.81469C27.5783 4.0582 28.5625 5.05201 29.7892 5.05201C31.0158 5.05201 32 4.0582 32 2.81469C32 1.57117 31.0158 0.577372 29.7892 0.577372ZM20.5893 2.16515V5.62938H13.2436V6.92846H20.5893V18.3316H16.6668V19.6306H20.5893V27.5695H13.2436V28.8686H20.5893V31.1781H26.3517C26.316 30.9688 26.2946 30.7523 26.2946 30.5285C26.2946 30.3048 26.316 30.0883 26.3517 29.879H21.873V19.6306H26.3517C26.316 19.4214 26.2946 19.2048 26.2946 18.9811C26.2946 18.7574 26.316 18.5409 26.3517 18.3316H21.873V3.46423H26.3517C26.316 3.25349 26.2946 3.03626 26.2946 2.81469C26.2946 2.59312 26.316 2.37589 26.3517 2.16515H20.5893ZM29.7892 16.7438C28.5625 16.7438 27.5783 17.7398 27.5783 18.9811C27.5783 20.2225 28.5625 21.2184 29.7892 21.2184C31.0158 21.2184 32 20.2225 32 18.9811C32 17.7398 31.0158 16.7438 29.7892 16.7438ZM29.7892 28.2912C28.5625 28.2912 27.5783 29.2872 27.5783 30.5285C27.5783 31.7699 28.5625 32.7659 29.7892 32.7659C31.0158 32.7659 32 31.7699 32 30.5285C32 29.2872 31.0158 28.2912 29.7892 28.2912Z" fill="#D7D7D7"/>
</svg>
