<svg width="71" height="53" viewBox="0 0 71 53" fill="none" xmlns="http://www.w3.org/2000/svg">
<path d="M7.30203 8.3481C7.30203 4.25275 10.4285 0.923096 14.274 0.923096H56.1057C59.9511 0.923096 63.0776 4.25275 63.0776 8.3481V38.0481H56.1057V8.3481H14.274V38.0481H7.30203V8.3481ZM0.330078 43.9881C0.330078 42.7584 1.26693 41.7606 2.42166 41.7606H67.958C69.1127 41.7606 70.0496 42.7584 70.0496 43.9881C70.0496 48.9072 66.3021 52.8981 61.6832 52.8981H8.69642C4.0775 52.8981 0.330078 48.9072 0.330078 43.9881ZM30.9413 21.4579L27.5642 25.0544L30.9413 28.6509C31.9653 29.7414 31.9653 31.5048 30.9413 32.5838C29.9173 33.6627 28.2614 33.6743 27.2483 32.5838L22.0194 27.015C20.9954 25.9245 20.9954 24.161 22.0194 23.0821L27.2483 17.5133C28.2723 16.4228 29.9282 16.4228 30.9413 17.5133C31.9544 18.6039 31.9653 20.3673 30.9413 21.4463V21.4579ZM43.1422 17.5133L48.3712 23.0821C49.3952 24.1726 49.3952 25.9361 48.3712 27.015L43.1422 32.5838C42.1182 33.6743 40.4624 33.6743 39.4492 32.5838C38.4361 31.4932 38.4252 29.7298 39.4492 28.6509L42.8263 25.0544L39.4492 21.4579C38.4252 20.3673 38.4252 18.6039 39.4492 17.5249C40.4732 16.446 42.1291 16.4344 43.1422 17.5249V17.5133Z" fill="#D7D7D7"/>
</svg>
